<svg width="849" height="925" viewBox="0 0 849 925" fill="none" xmlns="http://www.w3.org/2000/svg">
<g opacity="0.24">
<path d="M417.888 918.634L306.187 894.067L132.806 786.816L55.7875 677.271L10.4663 551.753L6.625 404.266L32.0491 292.621C32.0372 292.566 32.0372 292.51 32.0491 292.455L75.4083 214.773L148.779 127.558L253.792 54.8779H253.93L316.661 30.3657C316.784 30.3186 316.92 30.3148 317.045 30.355C317.171 30.3952 317.279 30.4769 317.352 30.5868C317.43 30.6848 317.473 30.8067 317.473 30.9322C317.473 31.0578 317.43 31.1796 317.352 31.2777L291.43 55.0437L339.847 55.32L357.091 17.5431C357.135 17.4606 357.198 17.3899 357.275 17.337C357.352 17.284 357.44 17.2505 357.533 17.2391L437.453 6.40625H437.674L558.881 35.1466L567.586 19.0354C567.651 18.9165 567.757 18.8256 567.884 18.7797C568.011 18.7339 568.151 18.7364 568.277 18.7867L684.343 64.937L790.655 146.239L860.488 242.961L902.742 349.355C902.787 349.482 902.786 349.619 902.741 349.745C902.696 349.871 902.608 349.977 902.493 350.046L884.558 359.691L892.655 399.098L913.105 405.62C913.215 405.659 913.31 405.73 913.379 405.823C913.448 405.917 913.487 406.029 913.492 406.145L914.653 506.322L896.303 599.534C896.293 599.623 896.261 599.707 896.21 599.78C896.159 599.852 896.09 599.911 896.009 599.949C895.929 599.988 895.841 600.006 895.752 600.001C895.663 599.996 895.577 599.968 895.502 599.921L887.902 595.306L862.782 679.012L786.012 783.223L671.852 868.339C671.768 868.4 671.666 868.432 671.562 868.432C671.458 868.432 671.357 868.4 671.272 868.339C671.18 868.293 671.103 868.221 671.049 868.134C670.995 868.046 670.967 867.945 670.968 867.841L671.659 847.226L561.119 909.073C560.987 909.127 560.838 909.127 560.705 909.073L339.156 844.02L418.247 917.612C418.316 917.703 418.354 917.815 418.354 917.93C418.354 918.045 418.316 918.156 418.247 918.248C418.222 918.336 418.176 918.417 418.114 918.484C418.051 918.551 417.974 918.603 417.888 918.634ZM306.768 893.1L416.036 917.115L336.696 843.385L310.194 836.034L306.768 893.1ZM339.709 843.136L560.014 907.857L537.188 816.662L339.709 843.136ZM538.431 816.551L561.175 907.387L641.758 802.761L538.431 816.551ZM643.167 802.568L562.86 906.862L671.714 846.065L673.289 798.616L643.167 802.568ZM251.719 819.812L305.745 891.994L309.2 835.73L251.719 819.812ZM136.398 787.838L304.004 891.525L249.978 819.342L136.398 787.838ZM672.792 846.784L672.129 866.93L778.44 787.7L672.792 846.784ZM674.395 798.506L672.847 845.485L782.751 784.025L674.395 798.506ZM310.83 827.439L336.973 842.252L408.685 769.572L314.201 772.722L310.83 827.439ZM410.316 769.406L338.465 842.058L536.828 815.556L524.337 765.62L410.316 769.406ZM310.388 834.845L332.91 841.091L310.802 828.545L310.388 834.845ZM250.669 818.264L309.31 834.541L309.697 827.937L219.801 777.116L250.669 818.264ZM219.773 775.762L309.78 826.721L313.124 772.639L219.773 775.762ZM135.625 786.346L248.928 817.795L217.535 775.845L135.625 786.346ZM525.608 765.592L538.072 815.335L642.587 801.518L674.008 760.729L525.608 765.592ZM674.533 761.751L644.135 801.214L673.345 797.317L674.533 761.751ZM675.694 760.729L674.478 797.179L782.254 782.754L675.694 760.729ZM121.144 717.176L133.22 785.628L216.125 774.988L121.144 717.176ZM57.5838 678.487L130.982 782.836L106.359 708.222L57.5838 678.487ZM676.799 759.927L785.073 782.311L815.803 699.6L676.799 759.927ZM817.212 698.992L787.311 779.437L860.461 680.228L817.212 698.992ZM107.824 709.079L130.789 778.747L119.735 716.375L107.824 709.079ZM319.839 663.288L219.054 774.74L313.151 771.617L319.839 663.288ZM209.576 668.539L218.281 774.021L319.231 662.376L209.576 668.539ZM114.263 673.9L217.148 773.91L208.47 668.594L114.263 673.9ZM120.978 715.711L213.914 772.335L113.821 675.005L120.978 715.711ZM321.055 662.321L314.312 771.589L409.873 768.411L501.234 675.862L321.055 662.321ZM502.174 676.497L411.311 768.356L524.061 764.625L502.174 676.497ZM503.28 676.497L525.388 764.653L672.985 759.761L503.28 676.497ZM504.191 675.696L674.533 759.292L663.23 644.413L504.191 675.696ZM731.516 630.955L676.246 759.181L816.549 698.384L850.263 607.714L731.516 630.955ZM664.336 644.192L675.528 758.048L730.134 631.231L664.336 644.192ZM107.327 707.476L119.597 714.965L112.356 673.983L96.5766 674.895L107.327 707.476ZM57.5838 677.078L105.973 706.564L95.5541 674.922L57.5838 677.078ZM850.871 608.93L817.903 697.555L861.759 678.598L850.871 608.93ZM846.367 570.435L851.618 606.692L862.423 676.442L886.935 594.781L846.367 570.435ZM12.0138 553.854L56.2297 676.028L95.2778 673.817L83.8646 639.522L12.0138 553.854ZM320.972 661.16L501.069 674.701L336.503 492.062L304.115 513.23L320.972 661.16ZM649.219 502.204L503.832 674.563L663.064 643.225L649.219 502.204ZM460.749 411.506L502.755 674.038L648.75 500.96L460.749 411.506ZM85.7714 641.898L96.2726 673.789L111.748 672.905L85.7714 641.898ZM337.415 491.426L501.566 673.651L459.616 411.506L337.415 491.426ZM201.285 580.853L114.263 672.684L208.222 667.406L201.285 580.853ZM84.9147 639.052L112.854 672.684L200.429 580.107L58.3023 558.966L84.9147 639.052ZM202.391 580.715L209.576 667.433L318.982 661.271L202.391 580.715ZM202.722 579.609L319.867 660.58L303.286 513.921L202.722 579.609ZM650.408 501.541L664.225 643.004L730.715 629.905L774.931 527.656L650.408 501.541ZM12.0414 551.919L82.925 636.758L57.1693 558.635L12.0414 551.919ZM776.036 528.043L731.875 629.656L850.457 606.36L845.179 569.689L776.036 528.043ZM888.482 594.367L895.64 598.65L911.502 517.21L888.482 594.367ZM846.422 569.081L887.515 593.759L913.326 506.874L838.712 518.177L846.422 569.081ZM58.247 557.75L200.207 578.725L134.658 506.073L51.1172 536.775L58.247 557.75ZM136.012 505.741L201.285 578.283L208.664 478.797L136.012 505.741ZM209.99 478.549L202.584 577.73L294.691 447.404L209.99 478.549ZM295.659 447.763L203.883 577.647L302.927 512.678L295.659 447.763ZM777.28 527.656L845.068 568.362L837.717 518.371L777.28 527.656ZM12.7876 551.007L57.0035 557.584L50.0671 537.273L12.7876 551.007ZM33.9283 487.889L11.4888 550.316L49.846 536.195L33.9283 487.889ZM7.23297 407.389L10.9084 548.327L33.2098 486.231L7.23297 407.389ZM34.398 486.148L50.7579 535.891L133.856 505.493L57.8601 420.847L34.398 486.148ZM820.003 395.92L776.34 526.578L837.551 517.265L820.003 395.92ZM651.099 500.574L774.599 526.495L738.508 445.58L651.099 500.574ZM739.53 444.972L775.456 525.721L819.202 394.815L739.53 444.972ZM821.081 395.395L838.712 516.989L913.105 505.714L821.081 395.395ZM296.709 447.902L304.032 512.07L335.784 491.261L296.709 447.902ZM58.5786 419.99L134.962 504.774L208.691 477.664L218.999 339.186L58.5786 419.99ZM821.081 393.571L913.105 504.111L891.688 399.761L840.259 383.319L821.081 393.571ZM892.932 400.093L913.52 500.325L912.414 406.366L892.932 400.093ZM461.551 410.539L649.302 499.938L688.903 335.538L461.551 410.539ZM689.843 336.367L650.491 499.662L738.066 444.558L689.843 336.367ZM296.957 446.52L336.669 490.736L457.24 411.866L296.957 446.52ZM7.45401 404.459L33.8177 484.407L56.9206 420.128L7.45401 404.459ZM220.049 339.821L209.824 477.25L295.05 445.912L220.049 339.821ZM220.989 339.241L296.156 445.553L457.82 410.484L220.989 339.241ZM690.782 335.759L739.005 443.95L819.146 393.599L690.782 335.759ZM7.26063 403.243L57.0035 418.968L32.132 294.611L7.26063 403.243ZM68.6377 301.575L58.1917 418.83L217.949 338.44L68.6377 301.575ZM32.7124 292.704L57.3903 415.928L67.6153 301.326L32.7124 292.704ZM485.013 273.829L460.749 409.738L687.853 334.681L485.013 273.829ZM220.934 338.08L458.29 409.434L328.24 271.259L220.934 338.08ZM329.124 270.596L459.672 409.378L483.935 273.525L376.159 241.192L329.124 270.596ZM841.614 382.517L891.357 398.463L883.453 359.995L841.614 382.517ZM698.714 338.136L819.533 392.632L817.544 376.051L698.714 338.136ZM824.812 378.427L821.081 392.438L838.795 382.904L824.812 378.427ZM818.704 376.465L820.418 390.614L823.761 378.096L818.704 376.465ZM825.088 377.35L840.149 382.186L883.315 358.972L860.101 245.89L825.088 377.35ZM818.566 375.277L824.093 377.018L859.3 244.564L806.186 272.973L818.566 375.277ZM691.086 334.543L817.544 374.89L805.136 273.553L691.086 334.543ZM861.981 249.538L884.337 358.42L901.526 349.162L861.981 249.538ZM112.854 231.023L219.414 337.279L269.405 209.495L112.854 231.023ZM68.8312 300.469L217.866 337.251L111.638 231.354L72.2856 261.753L68.8312 300.469ZM270.566 209.854L220.823 336.975L327.383 270.347L270.566 209.854ZM485.289 272.751L687.687 333.548L505.076 161.438L485.289 272.751ZM506.596 161.438L688.986 333.41L686.223 203.526L506.596 161.438ZM752.325 218.836L691.031 333.327L804.997 272.365L799.857 229.945L752.325 218.836ZM687.66 203.692L690.423 332.553L751.22 218.559L687.66 203.692ZM33.2651 291.709L67.7534 300.193L71.0973 262.582L33.2651 291.709ZM75.1043 217.509L34.2599 289.167L71.7882 254.734L75.1043 217.509ZM71.6499 256.392L41.8872 283.667L71.2354 261.09L71.6499 256.392ZM377.458 240.419L484.128 272.42L503.943 161.438L377.458 240.419ZM800.963 230.221L806.02 271.812L858.526 243.68L800.963 230.221ZM272.086 209.965L328.406 269.767L374.805 240.778L272.086 209.965ZM72.8659 255.397L72.4237 260.288L110.615 230.774L103.126 227.513L72.8659 255.397ZM76.3755 215.989L73.004 253.628L102.021 227.016L76.3755 215.989ZM800.963 229.033L858.996 242.602L791.29 148.643L800.963 229.033ZM272.528 208.942L376.048 240.004L501.787 161.438L272.528 208.942ZM149.387 185.094L112.992 229.89L268.77 208.417L184.981 152.457L149.387 185.094ZM104.038 226.684L111.361 229.89L116.888 214.967L104.038 226.684ZM752.878 217.813L799.719 228.867L789.909 148.477L752.878 217.813ZM118.602 213.336L113.323 227.762L143.722 190.261L118.602 213.336ZM76.9282 214.829L103.043 226.214L117.8 212.701L147.674 130.653L76.9282 214.829ZM687.66 202.559L751.883 217.565L789.522 147.289L686.609 152.208L687.66 202.559ZM149.525 128.746L119.431 211.181L148.585 184.458L178.183 148.035L149.525 128.746ZM326.803 86.2988L271.229 208.058L502.865 160.194L326.803 86.2988ZM185.865 151.683L269.654 207.727L256.97 86.5198L185.865 151.683ZM257.992 85.5802L270.676 206.759L325.946 85.8842L279.16 66.2358L257.992 85.5802ZM508.751 160.747L686.471 202.2L685.421 152.18L508.751 160.747ZM179.177 148.533L154.306 179.207L184.179 151.821L179.177 148.533ZM637.475 90.6651L507.148 159.752L685.338 151.213L684.454 108.13L637.475 90.6651ZM327.273 85.3039L503.639 159.338L458.843 56.8952L340.538 56.2596L327.273 85.3039ZM547.993 57.669L505.822 159.172L636.065 90.0847L547.993 57.669ZM460.031 57.061L504.689 159.117L546.86 57.5308L460.031 57.061ZM685.587 108.628L686.444 151.241L787.615 146.405L685.587 108.628ZM179.813 147.621L184.87 150.992L256.721 85.0828L253.792 56.6189L179.813 147.621ZM150.244 127.834L178.873 146.985L251.304 57.8901L150.244 127.834ZM685.559 107.246L787.145 144.857L684.703 66.4569L685.559 107.246ZM638.773 89.9189L684.426 106.831L683.597 66.1529L638.773 89.9189ZM551.42 57.6137L637.392 89.5873L682.133 65.7384L551.42 57.6137ZM279.907 65.4344L326.25 84.7788L339.46 56.2596L290.353 55.9833L279.907 65.4344ZM254.842 56.0938L257.771 84.1985L277.889 65.766L254.842 56.0938ZM256.97 55.7898L278.801 64.9646L288.584 55.9833L256.97 55.7898ZM548.601 56.3425L677.739 64.3566L559.434 36.2796L548.601 56.3425ZM559.959 35.2847L676.882 62.9196L568.304 19.8644L559.959 35.2847ZM459.561 55.7898L545.229 56.2596L438.724 7.89854L459.561 55.7898ZM442.98 8.64467L547.523 56.1214L558.356 36.0309L442.98 8.64467ZM341.035 55.1542L458.345 55.7898L437.177 7.40111L357.948 18.1234L341.035 55.1542ZM257.08 54.6844L289.772 54.8779L314.395 32.3001L257.08 54.6844Z" fill="white"/>
<path d="M254.213 61.8968C257.907 61.8968 260.901 58.9026 260.901 55.2091C260.901 51.5156 257.907 48.5215 254.213 48.5215C250.52 48.5215 247.525 51.5156 247.525 55.2091C247.525 58.9026 250.52 61.8968 254.213 61.8968Z" fill="white"/>
<path d="M316.97 35.7849C319.778 35.7849 322.054 33.5083 322.054 30.7001C322.054 27.8918 319.778 25.6152 316.97 25.6152C314.161 25.6152 311.885 27.8918 311.885 30.7001C311.885 33.5083 314.161 35.7849 316.97 35.7849Z" fill="white"/>
<path d="M38.7191 291.957C38.7191 293.28 38.3268 294.573 37.5919 295.673C36.8571 296.772 35.8126 297.63 34.5906 298.136C33.3686 298.642 32.024 298.774 30.7267 298.516C29.4295 298.258 28.2378 297.621 27.3025 296.686C26.3672 295.751 25.7303 294.559 25.4722 293.262C25.2142 291.965 25.3467 290.62 25.8528 289.398C26.359 288.176 27.2162 287.131 28.3159 286.397C29.4157 285.662 30.7087 285.27 32.0314 285.27C33.8051 285.27 35.5061 285.974 36.7603 287.228C38.0145 288.482 38.7191 290.184 38.7191 291.957Z" fill="white"/>
<path d="M13.3753 403.631C13.3753 404.954 12.9831 406.247 12.2482 407.346C11.5134 408.446 10.4689 409.303 9.2469 409.81C8.0249 410.316 6.6802 410.448 5.38293 410.19C4.08565 409.932 2.89404 409.295 1.95876 408.36C1.02347 407.425 0.38656 406.233 0.128516 404.936C-0.129528 403.638 0.00286364 402.294 0.509036 401.072C1.01521 399.85 1.87243 398.805 2.97221 398.07C4.07199 397.336 5.3649 396.943 6.68759 396.943C8.46126 396.943 10.1623 397.648 11.4165 398.902C12.6707 400.156 13.3753 401.857 13.3753 403.631Z" fill="white"/>
<path d="M139.5 786.238C139.5 787.561 139.108 788.854 138.373 789.954C137.638 791.054 136.594 791.911 135.372 792.417C134.15 792.923 132.805 793.056 131.508 792.798C130.211 792.54 129.019 791.903 128.084 790.967C127.148 790.032 126.512 788.84 126.253 787.543C125.995 786.246 126.128 784.901 126.634 783.679C127.14 782.457 127.997 781.413 129.097 780.678C130.197 779.943 131.49 779.551 132.813 779.551C134.586 779.551 136.287 780.255 137.542 781.51C138.796 782.764 139.5 784.465 139.5 786.238Z" fill="white"/>
<path d="M343.75 842.891C343.75 844.213 343.358 845.506 342.623 846.606C341.888 847.706 340.844 848.563 339.622 849.069C338.4 849.576 337.055 849.708 335.758 849.45C334.461 849.192 333.269 848.555 332.334 847.62C331.399 846.684 330.762 845.493 330.503 844.195C330.245 842.898 330.378 841.554 330.884 840.332C331.39 839.11 332.247 838.065 333.347 837.33C334.447 836.595 335.74 836.203 337.063 836.203C338.836 836.203 340.537 836.908 341.792 838.162C343.046 839.416 343.75 841.117 343.75 842.891Z" fill="white"/>
<path d="M217.791 782.036C221.485 782.036 224.479 779.041 224.479 775.348C224.479 771.654 221.485 768.66 217.791 768.66C214.098 768.66 211.104 771.654 211.104 775.348C211.104 779.041 214.098 782.036 217.791 782.036Z" fill="white"/>
<path d="M675.149 766.836C678.842 766.836 681.836 763.842 681.836 760.149C681.836 756.455 678.842 753.461 675.149 753.461C671.455 753.461 668.461 756.455 668.461 760.149C668.461 763.842 671.455 766.836 675.149 766.836Z" fill="white"/>
<path d="M782.233 527.245C782.261 528.573 781.892 529.879 781.174 530.997C780.456 532.115 779.422 532.994 778.202 533.521C776.983 534.048 775.634 534.201 774.328 533.958C773.021 533.716 771.817 533.09 770.868 532.161C769.919 531.231 769.268 530.04 768.998 528.739C768.729 527.438 768.853 526.087 769.355 524.857C769.857 523.627 770.714 522.574 771.816 521.833C772.919 521.092 774.217 520.696 775.546 520.695C777.296 520.695 778.976 521.381 780.226 522.605C781.477 523.829 782.197 525.495 782.233 527.245Z" fill="white"/>
<path d="M656.328 500.85C656.328 502.172 655.936 503.465 655.201 504.565C654.466 505.665 653.422 506.522 652.2 507.028C650.978 507.534 649.633 507.667 648.336 507.409C647.039 507.151 645.847 506.514 644.912 505.579C643.977 504.643 643.34 503.452 643.082 502.154C642.824 500.857 642.956 499.513 643.462 498.29C643.968 497.068 644.825 496.024 645.925 495.289C647.025 494.554 648.318 494.162 649.641 494.162C651.414 494.162 653.115 494.867 654.37 496.121C655.624 497.375 656.328 499.076 656.328 500.85Z" fill="white"/>
<path d="M675.149 766.836C678.842 766.836 681.836 763.842 681.836 760.149C681.836 756.455 678.842 753.461 675.149 753.461C671.455 753.461 668.461 756.455 668.461 760.149C668.461 763.842 671.455 766.836 675.149 766.836Z" fill="white"/>
<path d="M509.096 675.451C509.096 676.774 508.704 678.067 507.969 679.167C507.234 680.267 506.19 681.124 504.968 681.63C503.746 682.136 502.401 682.269 501.104 682.01C499.806 681.752 498.615 681.115 497.679 680.18C496.744 679.245 496.107 678.053 495.849 676.756C495.591 675.459 495.724 674.114 496.23 672.892C496.736 671.67 497.593 670.626 498.693 669.891C499.793 669.156 501.086 668.764 502.408 668.764C504.182 668.764 505.883 669.468 507.137 670.722C508.391 671.977 509.096 673.678 509.096 675.451Z" fill="white"/>
<path d="M857.76 606.774C857.76 608.096 857.368 609.389 856.633 610.489C855.898 611.589 854.854 612.446 853.632 612.952C852.41 613.458 851.065 613.591 849.768 613.333C848.471 613.075 847.279 612.438 846.344 611.502C845.408 610.567 844.771 609.376 844.513 608.078C844.255 606.781 844.388 605.436 844.894 604.214C845.4 602.992 846.257 601.948 847.357 601.213C848.457 600.478 849.75 600.086 851.072 600.086C852.846 600.086 854.547 600.791 855.801 602.045C857.055 603.299 857.76 605 857.76 606.774Z" fill="white"/>
<path d="M826.893 393.572C826.882 394.897 826.477 396.189 825.731 397.283C824.984 398.378 823.929 399.226 822.7 399.721C821.471 400.215 820.122 400.333 818.826 400.06C817.529 399.786 816.343 399.134 815.418 398.185C814.493 397.237 813.87 396.035 813.629 394.732C813.388 393.429 813.54 392.084 814.064 390.867C814.589 389.651 815.463 388.617 816.576 387.898C817.689 387.179 818.991 386.807 820.316 386.829C822.08 386.858 823.761 387.583 824.993 388.846C826.225 390.109 826.907 391.808 826.893 393.572Z" fill="white"/>
<path d="M782.233 527.245C782.261 528.573 781.892 529.879 781.174 530.997C780.456 532.115 779.422 532.994 778.202 533.521C776.983 534.048 775.634 534.201 774.328 533.958C773.021 533.716 771.817 533.09 770.868 532.161C769.919 531.231 769.268 530.04 768.998 528.739C768.729 527.438 768.853 526.087 769.355 524.857C769.857 523.627 770.714 522.574 771.816 521.833C772.919 521.092 774.217 520.696 775.546 520.695C777.296 520.695 778.976 521.381 780.226 522.605C781.477 523.829 782.197 525.495 782.233 527.245Z" fill="white"/>
<path d="M857.76 606.774C857.76 608.096 857.368 609.389 856.633 610.489C855.898 611.589 854.854 612.446 853.632 612.952C852.41 613.458 851.065 613.591 849.768 613.333C848.471 613.075 847.279 612.438 846.344 611.502C845.408 610.567 844.771 609.376 844.513 608.078C844.255 606.781 844.388 605.436 844.894 604.214C845.4 602.992 846.257 601.948 847.357 601.213C848.457 600.478 849.75 600.086 851.072 600.086C852.846 600.086 854.547 600.791 855.801 602.045C857.055 603.299 857.76 605 857.76 606.774Z" fill="white"/>
<path d="M792.235 782.975C792.235 784.297 791.842 785.59 791.108 786.69C790.373 787.79 789.328 788.647 788.106 789.153C786.884 789.659 785.54 789.792 784.242 789.534C782.945 789.276 781.753 788.639 780.818 787.704C779.883 786.768 779.246 785.577 778.988 784.279C778.73 782.982 778.862 781.637 779.368 780.415C779.875 779.193 780.732 778.149 781.831 777.414C782.931 776.679 784.224 776.287 785.547 776.287C787.321 776.287 789.022 776.992 790.276 778.246C791.53 779.5 792.235 781.201 792.235 782.975Z" fill="white"/>
<path d="M675.149 766.836C678.842 766.836 681.836 763.842 681.836 760.149C681.836 756.455 678.842 753.461 675.149 753.461C671.455 753.461 668.461 756.455 668.461 760.149C668.461 763.842 671.455 766.836 675.149 766.836Z" fill="white"/>
<path d="M792.235 782.975C792.235 784.297 791.842 785.59 791.108 786.69C790.373 787.79 789.328 788.647 788.106 789.153C786.884 789.659 785.54 789.792 784.242 789.534C782.945 789.276 781.753 788.639 780.818 787.704C779.883 786.768 779.246 785.577 778.988 784.279C778.73 782.982 778.862 781.637 779.368 780.415C779.875 779.193 780.732 778.149 781.831 777.414C782.931 776.679 784.224 776.287 785.547 776.287C787.321 776.287 789.022 776.992 790.276 778.246C791.53 779.5 792.235 781.201 792.235 782.975Z" fill="white"/>
<path d="M679.544 867.901C679.549 869.488 679.083 871.041 678.205 872.363C677.326 873.686 676.075 874.717 674.609 875.327C673.144 875.937 671.53 876.098 669.973 875.79C668.416 875.481 666.985 874.717 665.863 873.595C664.741 872.473 663.977 871.042 663.668 869.485C663.36 867.928 663.521 866.314 664.131 864.849C664.741 863.383 665.773 862.132 667.095 861.253C668.417 860.375 669.97 859.909 671.557 859.914C673.675 859.914 675.707 860.756 677.205 862.253C678.702 863.751 679.544 865.782 679.544 867.901Z" fill="white"/>
<path d="M675.148 770.318C680.765 770.318 685.318 765.765 685.318 760.148C685.318 754.532 680.765 749.979 675.148 749.979C669.532 749.979 664.979 754.532 664.979 760.148C664.979 765.765 669.532 770.318 675.148 770.318Z" fill="white"/>
<path d="M567.453 908.631C567.453 909.954 567.061 911.247 566.326 912.346C565.592 913.446 564.547 914.303 563.325 914.81C562.103 915.316 560.758 915.448 559.461 915.19C558.164 914.932 556.972 914.295 556.037 913.36C555.102 912.425 554.465 911.233 554.207 909.936C553.949 908.638 554.081 907.294 554.587 906.072C555.093 904.85 555.951 903.805 557.05 903.07C558.15 902.336 559.443 901.943 560.766 901.943C562.54 901.943 564.24 902.648 565.495 903.902C566.749 905.156 567.453 906.857 567.453 908.631Z" fill="white"/>
<path d="M792.235 782.975C792.235 784.297 791.842 785.59 791.108 786.69C790.373 787.79 789.328 788.647 788.106 789.153C786.884 789.659 785.54 789.792 784.242 789.534C782.945 789.276 781.753 788.639 780.818 787.704C779.883 786.768 779.246 785.577 778.988 784.279C778.73 782.982 778.862 781.637 779.368 780.415C779.875 779.193 780.732 778.149 781.831 777.414C782.931 776.679 784.224 776.287 785.547 776.287C787.321 776.287 789.022 776.992 790.276 778.246C791.53 779.5 792.235 781.201 792.235 782.975Z" fill="white"/>
<path d="M343.75 842.891C343.75 844.213 343.358 845.506 342.623 846.606C341.888 847.706 340.844 848.563 339.622 849.069C338.4 849.576 337.055 849.708 335.758 849.45C334.461 849.192 333.269 848.555 332.334 847.62C331.399 846.684 330.762 845.493 330.503 844.195C330.245 842.898 330.378 841.554 330.884 840.332C331.39 839.11 332.247 838.065 333.347 837.33C334.447 836.595 335.74 836.203 337.063 836.203C338.836 836.203 340.537 836.908 341.792 838.162C343.046 839.416 343.75 841.117 343.75 842.891Z" fill="white"/>
<path d="M509.096 675.451C509.096 676.774 508.704 678.067 507.969 679.167C507.234 680.267 506.19 681.124 504.968 681.63C503.746 682.136 502.401 682.269 501.104 682.01C499.806 681.752 498.615 681.115 497.679 680.18C496.744 679.245 496.107 678.053 495.849 676.756C495.591 675.459 495.724 674.114 496.23 672.892C496.736 671.67 497.593 670.626 498.693 669.891C499.793 669.156 501.086 668.764 502.408 668.764C504.182 668.764 505.883 669.468 507.137 670.722C508.391 671.977 509.096 673.678 509.096 675.451Z" fill="white"/>
<path d="M567.453 908.631C567.453 909.954 567.061 911.247 566.326 912.346C565.592 913.446 564.547 914.303 563.325 914.81C562.103 915.316 560.758 915.448 559.461 915.19C558.164 914.932 556.972 914.295 556.037 913.36C555.102 912.425 554.465 911.233 554.207 909.936C553.949 908.638 554.081 907.294 554.587 906.072C555.093 904.85 555.951 903.805 557.05 903.07C558.15 902.336 559.443 901.943 560.766 901.943C562.54 901.943 564.24 902.648 565.495 903.902C566.749 905.156 567.453 906.857 567.453 908.631Z" fill="white"/>
<path d="M348.371 842.891C348.371 845.126 347.708 847.311 346.466 849.17C345.224 851.029 343.459 852.477 341.394 853.333C339.328 854.188 337.056 854.412 334.863 853.976C332.671 853.54 330.657 852.463 329.076 850.883C327.495 849.302 326.419 847.288 325.983 845.096C325.547 842.903 325.77 840.631 326.626 838.565C327.481 836.5 328.93 834.735 330.789 833.493C332.648 832.251 334.833 831.588 337.068 831.588C340.066 831.588 342.941 832.779 345.061 834.898C347.18 837.018 348.371 839.893 348.371 842.891Z" fill="white"/>
<path d="M424.582 918.055C424.582 919.378 424.19 920.671 423.455 921.77C422.72 922.87 421.676 923.727 420.454 924.233C419.232 924.74 417.887 924.872 416.59 924.614C415.293 924.356 414.101 923.719 413.166 922.784C412.231 921.848 411.594 920.657 411.336 919.36C411.077 918.062 411.21 916.718 411.716 915.496C412.222 914.274 413.08 913.229 414.179 912.494C415.279 911.759 416.572 911.367 417.895 911.367C419.668 911.367 421.369 912.072 422.624 913.326C423.878 914.58 424.582 916.281 424.582 918.055Z" fill="white"/>
<path d="M312.889 893.514C312.889 894.837 312.497 896.13 311.762 897.229C311.027 898.329 309.983 899.186 308.761 899.692C307.539 900.199 306.194 900.331 304.897 900.073C303.599 899.815 302.408 899.178 301.472 898.243C300.537 897.307 299.9 896.116 299.642 894.819C299.384 893.521 299.517 892.177 300.023 890.955C300.529 889.733 301.386 888.688 302.486 887.953C303.586 887.218 304.879 886.826 306.201 886.826C307.975 886.826 309.676 887.531 310.93 888.785C312.184 890.039 312.889 891.74 312.889 893.514Z" fill="white"/>
<path d="M327.17 661.633C327.17 662.956 326.778 664.249 326.043 665.348C325.308 666.448 324.264 667.305 323.042 667.812C321.82 668.318 320.475 668.45 319.178 668.192C317.881 667.934 316.689 667.297 315.754 666.362C314.819 665.427 314.181 664.235 313.923 662.938C313.665 661.64 313.798 660.296 314.304 659.074C314.81 657.852 315.667 656.807 316.767 656.072C317.867 655.338 319.16 654.945 320.483 654.945C322.256 654.945 323.957 655.65 325.211 656.904C326.466 658.158 327.17 659.859 327.17 661.633Z" fill="white"/>
<path d="M509.096 675.451C509.096 676.774 508.704 678.067 507.969 679.167C507.234 680.267 506.19 681.124 504.968 681.63C503.746 682.136 502.401 682.269 501.104 682.01C499.806 681.752 498.615 681.115 497.679 680.18C496.744 679.245 496.107 678.053 495.849 676.756C495.591 675.459 495.724 674.114 496.23 672.892C496.736 671.67 497.593 670.626 498.693 669.891C499.793 669.156 501.086 668.764 502.408 668.764C504.182 668.764 505.883 669.468 507.137 670.722C508.391 671.977 509.096 673.678 509.096 675.451Z" fill="white"/>
<path d="M656.328 500.85C656.328 502.172 655.936 503.465 655.201 504.565C654.466 505.665 653.422 506.522 652.2 507.028C650.978 507.534 649.633 507.667 648.336 507.409C647.039 507.151 645.847 506.514 644.912 505.579C643.977 504.643 643.34 503.452 643.082 502.154C642.824 500.857 642.956 499.513 643.462 498.29C643.968 497.068 644.825 496.024 645.925 495.289C647.025 494.554 648.318 494.162 649.641 494.162C651.414 494.162 653.115 494.867 654.37 496.121C655.624 497.375 656.328 499.076 656.328 500.85Z" fill="white"/>
<path d="M826.893 393.572C826.882 394.897 826.477 396.189 825.731 397.283C824.984 398.378 823.929 399.226 822.7 399.721C821.471 400.215 820.122 400.333 818.826 400.06C817.529 399.786 816.343 399.134 815.418 398.185C814.493 397.237 813.87 396.035 813.629 394.732C813.388 393.429 813.54 392.084 814.064 390.867C814.589 389.651 815.463 388.617 816.576 387.898C817.689 387.179 818.991 386.807 820.316 386.829C822.08 386.858 823.761 387.583 824.993 388.846C826.225 390.109 826.907 391.808 826.893 393.572Z" fill="white"/>
<path d="M784.528 527.243C784.533 529.027 784.009 530.773 783.021 532.259C782.033 533.744 780.626 534.903 778.979 535.589C777.332 536.274 775.518 536.455 773.768 536.108C772.018 535.761 770.41 534.903 769.148 533.641C767.887 532.379 767.028 530.772 766.682 529.021C766.335 527.271 766.516 525.458 767.201 523.81C767.886 522.163 769.045 520.756 770.531 519.769C772.017 518.781 773.762 518.256 775.546 518.262C777.928 518.262 780.213 519.208 781.897 520.892C783.581 522.577 784.528 524.861 784.528 527.243Z" fill="white"/>
<path d="M696.371 334.656C696.371 335.979 695.979 337.272 695.244 338.372C694.509 339.472 693.465 340.329 692.243 340.835C691.021 341.341 689.676 341.474 688.379 341.216C687.082 340.957 685.89 340.321 684.955 339.385C684.02 338.45 683.383 337.258 683.125 335.961C682.867 334.664 682.999 333.319 683.505 332.097C684.011 330.875 684.868 329.831 685.968 329.096C687.068 328.361 688.361 327.969 689.684 327.969C690.562 327.969 691.432 328.142 692.243 328.478C693.054 328.814 693.792 329.307 694.413 329.928C695.034 330.549 695.526 331.286 695.862 332.097C696.198 332.909 696.371 333.778 696.371 334.656Z" fill="white"/>
<path d="M660.308 500.853C660.33 502.968 659.723 505.041 658.564 506.81C657.406 508.578 655.747 509.963 653.8 510.787C651.853 511.611 649.705 511.838 647.629 511.439C645.552 511.04 643.641 510.033 642.138 508.546C640.635 507.059 639.608 505.158 639.188 503.086C638.767 501.014 638.972 498.863 639.776 496.908C640.58 494.952 641.947 493.28 643.703 492.103C645.46 490.926 647.527 490.297 649.641 490.297C652.453 490.29 655.154 491.396 657.153 493.374C659.152 495.352 660.286 498.041 660.308 500.853Z" fill="white"/>
<path d="M466.727 410.567C466.727 411.889 466.335 413.182 465.6 414.282C464.865 415.382 463.821 416.239 462.599 416.745C461.377 417.251 460.032 417.384 458.735 417.126C457.437 416.868 456.246 416.231 455.31 415.295C454.375 414.36 453.738 413.169 453.48 411.871C453.222 410.574 453.355 409.229 453.861 408.007C454.367 406.785 455.224 405.741 456.324 405.006C457.424 404.271 458.717 403.879 460.039 403.879C461.813 403.879 463.514 404.583 464.768 405.838C466.022 407.092 466.727 408.793 466.727 410.567Z" fill="white"/>
<path d="M512.935 675.449C512.94 677.532 512.327 679.571 511.174 681.306C510.02 683.041 508.378 684.394 506.454 685.196C504.531 685.997 502.413 686.209 500.369 685.806C498.324 685.403 496.446 684.402 494.971 682.931C493.495 681.46 492.49 679.584 492.081 677.54C491.673 675.497 491.88 673.379 492.676 671.453C493.472 669.528 494.821 667.882 496.553 666.724C498.285 665.565 500.322 664.947 502.406 664.947C505.194 664.947 507.867 666.053 509.841 668.021C511.815 669.99 512.927 672.661 512.935 675.449Z" fill="white"/>
<path d="M295.912 452.877C299.606 452.877 302.6 449.883 302.6 446.19C302.6 442.496 299.606 439.502 295.912 439.502C292.219 439.502 289.225 442.496 289.225 446.19C289.225 449.883 292.219 452.877 295.912 452.877Z" fill="white"/>
<path d="M327.17 661.633C327.17 662.956 326.778 664.249 326.043 665.348C325.308 666.448 324.264 667.305 323.042 667.812C321.82 668.318 320.475 668.45 319.178 668.192C317.881 667.934 316.689 667.297 315.754 666.362C314.819 665.427 314.181 664.235 313.923 662.938C313.665 661.64 313.798 660.296 314.304 659.074C314.81 657.852 315.667 656.807 316.767 656.072C317.867 655.338 319.16 654.945 320.483 654.945C322.256 654.945 323.957 655.65 325.211 656.904C326.466 658.158 327.17 659.859 327.17 661.633Z" fill="white"/>
<path d="M217.791 782.036C221.485 782.036 224.479 779.041 224.479 775.348C224.479 771.654 221.485 768.66 217.791 768.66C214.098 768.66 211.104 771.654 211.104 775.348C211.104 779.041 214.098 782.036 217.791 782.036Z" fill="white"/>
<path d="M314.409 893.513C314.409 895.153 313.923 896.756 313.012 898.119C312.101 899.482 310.806 900.545 309.291 901.173C307.776 901.8 306.109 901.964 304.501 901.644C302.893 901.324 301.416 900.535 300.256 899.375C299.097 898.216 298.307 896.739 297.987 895.131C297.668 893.522 297.832 891.855 298.459 890.34C299.087 888.826 300.149 887.531 301.513 886.62C302.876 885.709 304.479 885.223 306.119 885.223C308.317 885.223 310.426 886.096 311.981 887.651C313.536 889.206 314.409 891.314 314.409 893.513Z" fill="white"/>
<path d="M139.5 786.238C139.5 787.561 139.108 788.854 138.373 789.954C137.638 791.054 136.594 791.911 135.372 792.417C134.15 792.923 132.805 793.056 131.508 792.798C130.211 792.54 129.019 791.903 128.084 790.967C127.148 790.032 126.512 788.84 126.253 787.543C125.995 786.246 126.128 784.901 126.634 783.679C127.14 782.457 127.997 781.413 129.097 780.678C130.197 779.943 131.49 779.551 132.813 779.551C134.586 779.551 136.287 780.255 137.542 781.51C138.796 782.764 139.5 784.465 139.5 786.238Z" fill="white"/>
<path d="M217.791 782.036C221.485 782.036 224.479 779.041 224.479 775.348C224.479 771.654 221.485 768.66 217.791 768.66C214.098 768.66 211.104 771.654 211.104 775.348C211.104 779.041 214.098 782.036 217.791 782.036Z" fill="white"/>
<path d="M208.34 579.61C208.34 580.932 207.948 582.225 207.213 583.325C206.478 584.425 205.434 585.282 204.212 585.788C202.99 586.294 201.645 586.427 200.348 586.169C199.05 585.911 197.859 585.274 196.924 584.338C195.988 583.403 195.351 582.211 195.093 580.914C194.835 579.617 194.968 578.272 195.474 577.05C195.98 575.828 196.837 574.784 197.937 574.049C199.037 573.314 200.33 572.922 201.652 572.922C203.426 572.922 205.127 573.626 206.381 574.881C207.636 576.135 208.34 577.836 208.34 579.61Z" fill="white"/>
<path d="M327.17 661.633C327.17 662.956 326.778 664.249 326.043 665.348C325.308 666.448 324.264 667.305 323.042 667.812C321.82 668.318 320.475 668.45 319.178 668.192C317.881 667.934 316.689 667.297 315.754 666.362C314.819 665.427 314.181 664.235 313.923 662.938C313.665 661.64 313.798 660.296 314.304 659.074C314.81 657.852 315.667 656.807 316.767 656.072C317.867 655.338 319.16 654.945 320.483 654.945C322.256 654.945 323.957 655.65 325.211 656.904C326.466 658.158 327.17 659.859 327.17 661.633Z" fill="white"/>
<path d="M119.606 673.406C119.606 674.729 119.214 676.022 118.479 677.122C117.744 678.222 116.699 679.079 115.477 679.585C114.255 680.091 112.911 680.224 111.613 679.966C110.316 679.708 109.125 679.071 108.189 678.135C107.254 677.2 106.617 676.008 106.359 674.711C106.101 673.414 106.233 672.069 106.74 670.847C107.246 669.625 108.103 668.581 109.203 667.846C110.302 667.111 111.595 666.719 112.918 666.719C114.692 666.719 116.393 667.423 117.647 668.678C118.901 669.932 119.606 671.633 119.606 673.406Z" fill="white"/>
<path d="M217.791 782.036C221.485 782.036 224.479 779.041 224.479 775.348C224.479 771.654 221.485 768.66 217.791 768.66C214.098 768.66 211.104 771.654 211.104 775.348C211.104 779.041 214.098 782.036 217.791 782.036Z" fill="white"/>
<path d="M62.4456 676.666C62.4456 677.989 62.0534 679.282 61.3185 680.382C60.5837 681.481 59.5392 682.339 58.3172 682.845C57.0952 683.351 55.7506 683.483 54.4533 683.225C53.156 682.967 51.9644 682.33 51.0291 681.395C50.0938 680.46 49.4569 679.268 49.1988 677.971C48.9408 676.674 49.0732 675.329 49.5794 674.107C50.0856 672.885 50.9427 671.84 52.0425 671.106C53.1423 670.371 54.4353 669.979 55.758 669.979C57.5316 669.979 59.2327 670.683 60.4869 671.937C61.7411 673.191 62.4456 674.892 62.4456 676.666Z" fill="white"/>
<path d="M139.5 786.238C139.5 787.561 139.108 788.854 138.373 789.954C137.638 791.054 136.594 791.911 135.372 792.417C134.15 792.923 132.805 793.056 131.508 792.798C130.211 792.54 129.019 791.903 128.084 790.967C127.148 790.032 126.512 788.84 126.253 787.543C125.995 786.246 126.128 784.901 126.634 783.679C127.14 782.457 127.997 781.413 129.097 780.678C130.197 779.943 131.49 779.551 132.813 779.551C134.586 779.551 136.287 780.255 137.542 781.51C138.796 782.764 139.5 784.465 139.5 786.238Z" fill="white"/>
<path d="M119.606 673.406C119.606 674.729 119.214 676.022 118.479 677.122C117.744 678.222 116.699 679.079 115.477 679.585C114.255 680.091 112.911 680.224 111.613 679.966C110.316 679.708 109.125 679.071 108.189 678.135C107.254 677.2 106.617 676.008 106.359 674.711C106.101 673.414 106.233 672.069 106.74 670.847C107.246 669.625 108.103 668.581 109.203 667.846C110.302 667.111 111.595 666.719 112.918 666.719C114.692 666.719 116.393 667.423 117.647 668.678C118.901 669.932 119.606 671.633 119.606 673.406Z" fill="white"/>
<path d="M62.4456 676.666C62.4456 677.989 62.0534 679.282 61.3185 680.382C60.5837 681.481 59.5392 682.339 58.3172 682.845C57.0952 683.351 55.7506 683.483 54.4533 683.225C53.156 682.967 51.9644 682.33 51.0291 681.395C50.0938 680.46 49.4569 679.268 49.1988 677.971C48.9408 676.674 49.0732 675.329 49.5794 674.107C50.0856 672.885 50.9427 671.84 52.0425 671.106C53.1423 670.371 54.4353 669.979 55.758 669.979C57.5316 669.979 59.2327 670.683 60.4869 671.937C61.7411 673.191 62.4456 674.892 62.4456 676.666Z" fill="white"/>
<path d="M17.1292 551.094C17.1292 552.417 16.737 553.71 16.0021 554.809C15.2673 555.909 14.2228 556.766 13.0008 557.272C11.7788 557.779 10.4342 557.911 9.13689 557.653C7.83962 557.395 6.64792 556.758 5.71264 555.823C4.77736 554.887 4.14044 553.696 3.8824 552.399C3.62436 551.101 3.75683 549.757 4.263 548.535C4.76918 547.313 5.62632 546.268 6.72609 545.533C7.82587 544.798 9.11887 544.406 10.4416 544.406C12.2152 544.406 13.9162 545.111 15.1704 546.365C16.4246 547.619 17.1292 549.32 17.1292 551.094Z" fill="white"/>
<path d="M121.677 673.405C121.677 675.137 121.163 676.831 120.2 678.272C119.238 679.712 117.87 680.835 116.269 681.498C114.668 682.161 112.907 682.335 111.207 681.997C109.508 681.659 107.947 680.824 106.722 679.599C105.497 678.374 104.663 676.813 104.325 675.114C103.987 673.415 104.16 671.653 104.823 670.052C105.486 668.452 106.609 667.083 108.05 666.121C109.49 665.158 111.184 664.645 112.916 664.645C115.24 664.645 117.468 665.568 119.111 667.21C120.754 668.853 121.677 671.081 121.677 673.405Z" fill="white"/>
<path d="M208.34 579.61C208.34 580.932 207.948 582.225 207.213 583.325C206.478 584.425 205.434 585.282 204.212 585.788C202.99 586.294 201.645 586.427 200.348 586.169C199.05 585.911 197.859 585.274 196.924 584.338C195.988 583.403 195.351 582.211 195.093 580.914C194.835 579.617 194.968 578.272 195.474 577.05C195.98 575.828 196.837 574.784 197.937 574.049C199.037 573.314 200.33 572.922 201.652 572.922C203.426 572.922 205.127 573.626 206.381 574.881C207.636 576.135 208.34 577.836 208.34 579.61Z" fill="white"/>
<path d="M466.727 410.567C466.727 411.889 466.335 413.182 465.6 414.282C464.865 415.382 463.821 416.239 462.599 416.745C461.377 417.251 460.032 417.384 458.735 417.126C457.437 416.868 456.246 416.231 455.31 415.295C454.375 414.36 453.738 413.169 453.48 411.871C453.222 410.574 453.355 409.229 453.861 408.007C454.367 406.785 455.224 405.741 456.324 405.006C457.424 404.271 458.717 403.879 460.039 403.879C461.813 403.879 463.514 404.583 464.768 405.838C466.022 407.092 466.727 408.793 466.727 410.567Z" fill="white"/>
<path d="M696.371 334.656C696.371 335.979 695.979 337.272 695.244 338.372C694.509 339.472 693.465 340.329 692.243 340.835C691.021 341.341 689.676 341.474 688.379 341.216C687.082 340.957 685.89 340.321 684.955 339.385C684.02 338.45 683.383 337.258 683.125 335.961C682.867 334.664 682.999 333.319 683.505 332.097C684.011 330.875 684.868 329.831 685.968 329.096C687.068 328.361 688.361 327.969 689.684 327.969C690.562 327.969 691.432 328.142 692.243 328.478C693.054 328.814 693.792 329.307 694.413 329.928C695.034 330.549 695.526 331.286 695.862 332.097C696.198 332.909 696.371 333.778 696.371 334.656Z" fill="white"/>
<path d="M696.371 334.656C696.371 335.979 695.979 337.272 695.244 338.372C694.509 339.472 693.465 340.329 692.243 340.835C691.021 341.341 689.676 341.474 688.379 341.216C687.082 340.957 685.89 340.321 684.955 339.385C684.02 338.45 683.383 337.258 683.125 335.961C682.867 334.664 682.999 333.319 683.505 332.097C684.011 330.875 684.868 329.831 685.968 329.096C687.068 328.361 688.361 327.969 689.684 327.969C690.562 327.969 691.432 328.142 692.243 328.478C693.054 328.814 693.792 329.307 694.413 329.928C695.034 330.549 695.526 331.286 695.862 332.097C696.198 332.909 696.371 333.778 696.371 334.656Z" fill="white"/>
<path d="M826.893 393.572C826.882 394.897 826.477 396.189 825.731 397.283C824.984 398.378 823.929 399.226 822.7 399.721C821.471 400.215 820.122 400.333 818.826 400.06C817.529 399.786 816.343 399.134 815.418 398.185C814.493 397.237 813.87 396.035 813.629 394.732C813.388 393.429 813.54 392.084 814.064 390.867C814.589 389.651 815.463 388.617 816.576 387.898C817.689 387.179 818.991 386.807 820.316 386.829C822.08 386.858 823.761 387.583 824.993 388.846C826.225 390.109 826.907 391.808 826.893 393.572Z" fill="white"/>
<path d="M826.893 393.572C826.882 394.897 826.477 396.189 825.731 397.283C824.984 398.378 823.929 399.226 822.7 399.721C821.471 400.215 820.122 400.333 818.826 400.06C817.529 399.786 816.343 399.134 815.418 398.185C814.493 397.237 813.87 396.035 813.629 394.732C813.388 393.429 813.54 392.084 814.064 390.867C814.589 389.651 815.463 388.617 816.576 387.898C817.689 387.179 818.991 386.807 820.316 386.829C822.08 386.858 823.761 387.583 824.993 388.846C826.225 390.109 826.907 391.808 826.893 393.572Z" fill="white"/>
<path d="M511.406 160.386C511.37 162.138 510.651 163.807 509.401 165.036C508.152 166.265 506.471 166.956 504.719 166.963C502.945 166.963 501.244 166.259 499.99 165.004C498.736 163.75 498.031 162.049 498.031 160.276C498.031 158.502 498.736 156.801 499.99 155.547C501.244 154.292 502.945 153.588 504.719 153.588C505.606 153.588 506.485 153.764 507.304 154.107C508.123 154.45 508.865 154.953 509.487 155.586C510.11 156.218 510.6 156.969 510.93 157.793C511.259 158.617 511.421 159.499 511.406 160.386Z" fill="white"/>
<path d="M696.371 334.656C696.371 335.979 695.979 337.272 695.244 338.372C694.509 339.472 693.465 340.329 692.243 340.835C691.021 341.341 689.676 341.474 688.379 341.216C687.082 340.957 685.89 340.321 684.955 339.385C684.02 338.45 683.383 337.258 683.125 335.961C682.867 334.664 682.999 333.319 683.505 332.097C684.011 330.875 684.868 329.831 685.968 329.096C687.068 328.361 688.361 327.969 689.684 327.969C690.562 327.969 691.432 328.142 692.243 328.478C693.054 328.814 693.792 329.307 694.413 329.928C695.034 330.549 695.526 331.286 695.862 332.097C696.198 332.909 696.371 333.778 696.371 334.656Z" fill="white"/>
<path d="M690.817 65.2968C690.817 67.0705 690.112 68.7715 688.858 70.0257C687.604 71.2798 685.902 71.9844 684.129 71.9844C683.252 71.9844 682.384 71.8113 681.574 71.4748C680.764 71.1384 680.028 70.6454 679.41 70.024C678.791 69.4026 678.301 68.6652 677.968 67.8539C677.635 67.0427 677.465 66.1737 677.469 65.2968C677.469 63.5304 678.17 61.8364 679.419 60.5874C680.668 59.3385 682.362 58.6368 684.129 58.6368C685.006 58.6331 685.875 58.8027 686.686 59.1358C687.497 59.4689 688.235 59.9588 688.856 60.5776C689.477 61.1964 689.971 61.9319 690.307 62.7417C690.643 63.5515 690.817 64.4198 690.817 65.2968Z" fill="white"/>
<path d="M795.635 146.681C795.635 148.081 795.079 149.423 794.089 150.413C793.099 151.403 791.757 151.959 790.357 151.959C789.661 151.963 788.972 151.829 788.328 151.565C787.685 151.302 787.1 150.913 786.607 150.423C786.114 149.933 785.722 149.349 785.455 148.707C785.188 148.065 785.051 147.376 785.051 146.681C785.051 145.274 785.61 143.924 786.605 142.929C787.6 141.934 788.949 141.375 790.357 141.375C791.759 141.382 793.102 141.945 794.091 142.939C795.08 143.933 795.635 145.278 795.635 146.681Z" fill="white"/>
<path d="M547.703 63.5276C551.397 63.5276 554.391 60.5335 554.391 56.84C554.391 53.1465 551.397 50.1523 547.703 50.1523C544.01 50.1523 541.016 53.1465 541.016 56.84C541.016 60.5335 544.01 63.5276 547.703 63.5276Z" fill="white"/>
<path d="M574.75 19.1759C574.743 20.9474 574.036 22.6442 572.784 23.8968C571.531 25.1494 569.834 25.8563 568.063 25.8636C566.289 25.8636 564.588 25.159 563.334 23.9048C562.08 22.6506 561.375 20.9496 561.375 19.1759C561.375 17.4022 562.08 15.7012 563.334 14.447C564.588 13.1929 566.289 12.4883 568.063 12.4883C569.836 12.4883 571.537 13.1929 572.792 14.447C574.046 15.7012 574.75 17.4022 574.75 19.1759Z" fill="white"/>
<path d="M637.564 94.1202C639.792 94.1202 641.599 92.3138 641.599 90.0855C641.599 87.8572 639.792 86.0508 637.564 86.0508C635.336 86.0508 633.529 87.8572 633.529 90.0855C633.529 92.3138 635.336 94.1202 637.564 94.1202Z" fill="white"/>
<path d="M689.051 107.801C689.043 108.829 688.63 109.813 687.9 110.538C687.17 111.263 686.183 111.67 685.154 111.67C684.128 111.67 683.144 111.262 682.418 110.537C681.693 109.811 681.285 108.827 681.285 107.801C681.285 106.772 681.692 105.785 682.417 105.055C683.141 104.325 684.125 103.912 685.154 103.904C686.188 103.904 687.179 104.315 687.909 105.046C688.64 105.776 689.051 106.767 689.051 107.801Z" fill="white"/>
<path d="M686.396 206.675C688.533 206.675 690.265 204.943 690.265 202.806C690.265 200.67 688.533 198.938 686.396 198.938C684.26 198.938 682.527 200.67 682.527 202.806C682.527 204.943 684.26 206.675 686.396 206.675Z" fill="white"/>
<path d="M686.039 155.167C688.176 155.167 689.908 153.435 689.908 151.299C689.908 149.162 688.176 147.43 686.039 147.43C683.902 147.43 682.17 149.162 682.17 151.299C682.17 153.435 683.902 155.167 686.039 155.167Z" fill="white"/>
<path d="M751.613 222.156C753.75 222.156 755.482 220.424 755.482 218.287C755.482 216.15 753.75 214.418 751.613 214.418C749.476 214.418 747.744 216.15 747.744 218.287C747.744 220.424 749.476 222.156 751.613 222.156Z" fill="white"/>
<path d="M800.113 233.015C802.25 233.015 803.982 231.283 803.982 229.146C803.982 227.009 802.25 225.277 800.113 225.277C797.976 225.277 796.244 227.009 796.244 229.146C796.244 231.283 797.976 233.015 800.113 233.015Z" fill="white"/>
<path d="M809.84 272.645C809.84 273.415 809.611 274.169 809.183 274.809C808.755 275.45 808.147 275.95 807.435 276.244C806.723 276.539 805.939 276.617 805.183 276.466C804.427 276.316 803.733 275.945 803.188 275.4C802.643 274.855 802.272 274.161 802.122 273.405C801.971 272.649 802.048 271.865 802.343 271.153C802.638 270.441 803.138 269.833 803.779 269.405C804.419 268.977 805.173 268.748 805.943 268.748C806.977 268.748 807.968 269.159 808.699 269.889C809.429 270.62 809.84 271.611 809.84 272.645Z" fill="white"/>
<path d="M817.91 378.951C820.047 378.951 821.779 377.219 821.779 375.082C821.779 372.945 820.047 371.213 817.91 371.213C815.773 371.213 814.041 372.945 814.041 375.082C814.041 377.219 815.773 378.951 817.91 378.951Z" fill="white"/>
<path d="M844.358 382.935C844.363 383.708 844.138 384.466 843.712 385.111C843.286 385.756 842.678 386.259 841.965 386.558C841.252 386.856 840.466 386.935 839.708 386.786C838.949 386.636 838.252 386.265 837.706 385.718C837.159 385.172 836.787 384.475 836.638 383.716C836.489 382.958 836.568 382.172 836.866 381.459C837.165 380.746 837.668 380.138 838.313 379.712C838.958 379.286 839.716 379.061 840.489 379.067C841.515 379.067 842.499 379.474 843.224 380.2C843.95 380.925 844.358 381.909 844.358 382.935Z" fill="white"/>
<path d="M739.15 448.039C741.287 448.039 743.019 446.306 743.019 444.17C743.019 442.033 741.287 440.301 739.15 440.301C737.013 440.301 735.281 442.033 735.281 444.17C735.281 446.306 737.013 448.039 739.15 448.039Z" fill="white"/>
<path d="M838.193 521.746C840.33 521.746 842.062 520.013 842.062 517.877C842.062 515.74 840.33 514.008 838.193 514.008C836.056 514.008 834.324 515.74 834.324 517.877C834.324 520.013 836.056 521.746 838.193 521.746Z" fill="white"/>
<path d="M849.441 569.471C849.447 570.242 849.223 570.998 848.798 571.643C848.373 572.287 847.767 572.791 847.055 573.09C846.344 573.389 845.559 573.47 844.802 573.323C844.044 573.176 843.347 572.807 842.8 572.263C842.252 571.719 841.878 571.025 841.725 570.269C841.573 569.512 841.648 568.727 841.942 568.013C842.237 567.3 842.736 566.69 843.377 566.26C844.019 565.831 844.773 565.602 845.545 565.602C846.055 565.598 846.561 565.695 847.034 565.888C847.506 566.081 847.936 566.365 848.298 566.725C848.661 567.085 848.948 567.512 849.144 567.984C849.34 568.455 849.441 568.96 849.441 569.471Z" fill="white"/>
<path d="M731.799 633.667C733.935 633.667 735.667 631.935 735.667 629.799C735.667 627.662 733.935 625.93 731.799 625.93C729.662 625.93 727.93 627.662 727.93 629.799C727.93 631.935 729.662 633.667 731.799 633.667Z" fill="white"/>
<path d="M664.093 648.392C666.23 648.392 667.962 646.66 667.962 644.523C667.962 642.386 666.23 640.654 664.093 640.654C661.957 640.654 660.225 642.386 660.225 644.523C660.225 646.66 661.957 648.392 664.093 648.392Z" fill="white"/>
<path d="M537.89 820.673C540.027 820.673 541.759 818.941 541.759 816.804C541.759 814.668 540.027 812.936 537.89 812.936C535.754 812.936 534.021 814.668 534.021 816.804C534.021 818.941 535.754 820.673 537.89 820.673Z" fill="white"/>
<path d="M524.537 769.078C526.674 769.078 528.406 767.345 528.406 765.209C528.406 763.072 526.674 761.34 524.537 761.34C522.4 761.34 520.668 763.072 520.668 765.209C520.668 767.345 522.4 769.078 524.537 769.078Z" fill="white"/>
<path d="M409.851 773.224C411.988 773.224 413.72 771.492 413.72 769.355C413.72 767.218 411.988 765.486 409.851 765.486C407.715 765.486 405.982 767.218 405.982 769.355C405.982 771.492 407.715 773.224 409.851 773.224Z" fill="white"/>
<path d="M313.33 835.732C313.335 836.504 313.112 837.26 312.687 837.904C312.262 838.549 311.655 839.053 310.944 839.352C310.232 839.651 309.448 839.732 308.69 839.585C307.933 839.438 307.236 839.069 306.688 838.525C306.141 837.981 305.767 837.287 305.614 836.53C305.461 835.774 305.537 834.989 305.831 834.275C306.125 833.561 306.625 832.951 307.266 832.522C307.907 832.093 308.662 831.863 309.434 831.863C310.462 831.863 311.449 832.27 312.179 832.995C312.909 833.72 313.323 834.704 313.33 835.732Z" fill="white"/>
<path d="M250.486 822.966C252.623 822.966 254.355 821.234 254.355 819.097C254.355 816.961 252.623 815.229 250.486 815.229C248.349 815.229 246.617 816.961 246.617 819.097C246.617 821.234 248.349 822.966 250.486 822.966Z" fill="white"/>
<path d="M314.047 776.456C316.183 776.456 317.916 774.724 317.916 772.588C317.916 770.451 316.183 768.719 314.047 768.719C311.91 768.719 310.178 770.451 310.178 772.588C310.178 774.724 311.91 776.456 314.047 776.456Z" fill="white"/>
<path d="M121.984 719.335C124.121 719.335 125.853 717.603 125.853 715.467C125.853 713.33 124.121 711.598 121.984 711.598C119.847 711.598 118.115 713.33 118.115 715.467C118.115 717.603 119.847 719.335 121.984 719.335Z" fill="white"/>
<path d="M106.787 711.953C108.924 711.953 110.656 710.22 110.656 708.084C110.656 705.947 108.924 704.215 106.787 704.215C104.65 704.215 102.918 705.947 102.918 708.084C102.918 710.22 104.65 711.953 106.787 711.953Z" fill="white"/>
<path d="M95.7322 678.353C97.8689 678.353 99.6011 676.621 99.6011 674.484C99.6011 672.347 97.8689 670.615 95.7322 670.615C93.5954 670.615 91.8633 672.347 91.8633 674.484C91.8633 676.621 93.5954 678.353 95.7322 678.353Z" fill="white"/>
<path d="M87.9962 640.404C87.9962 641.175 87.7676 641.928 87.3395 642.569C86.9113 643.21 86.3028 643.709 85.5908 644.004C84.8788 644.299 84.0953 644.376 83.3394 644.226C82.5836 644.076 81.8894 643.705 81.3444 643.16C80.7995 642.615 80.4284 641.92 80.278 641.164C80.1277 640.409 80.2048 639.625 80.4997 638.913C80.7946 638.201 81.2941 637.593 81.9348 637.164C82.5756 636.736 83.329 636.508 84.0996 636.508C85.1331 636.508 86.1241 636.918 86.8549 637.649C87.5856 638.38 87.9962 639.371 87.9962 640.404Z" fill="white"/>
<path d="M57.5056 562.287C59.6423 562.287 61.3745 560.554 61.3745 558.418C61.3745 556.281 59.6423 554.549 57.5056 554.549C55.3689 554.549 53.6367 556.281 53.6367 558.418C53.6367 560.554 55.3689 562.287 57.5056 562.287Z" fill="white"/>
<path d="M50.5994 539.708C52.7361 539.708 54.4682 537.976 54.4682 535.84C54.4682 533.703 52.7361 531.971 50.5994 531.971C48.4626 531.971 46.7305 533.703 46.7305 535.84C46.7305 537.976 48.4626 539.708 50.5994 539.708Z" fill="white"/>
<path d="M212.354 668.041C212.354 668.812 212.125 669.565 211.697 670.206C211.269 670.847 210.66 671.346 209.948 671.641C209.236 671.936 208.453 672.013 207.697 671.863C206.941 671.712 206.247 671.341 205.702 670.796C205.157 670.251 204.786 669.557 204.635 668.801C204.485 668.045 204.562 667.262 204.857 666.55C205.152 665.838 205.651 665.229 206.292 664.801C206.933 664.373 207.686 664.145 208.457 664.145C209.49 664.145 210.482 664.555 211.212 665.286C211.943 666.017 212.354 667.008 212.354 668.041Z" fill="white"/>
<path d="M134.885 509.31C137.021 509.31 138.753 507.578 138.753 505.441C138.753 503.304 137.021 501.572 134.885 501.572C132.748 501.572 131.016 503.304 131.016 505.441C131.016 507.578 132.748 509.31 134.885 509.31Z" fill="white"/>
<path d="M38.2539 485.185C38.2594 485.957 38.0355 486.713 37.6107 487.358C37.1859 488.002 36.5792 488.506 35.8677 488.805C35.1562 489.104 34.372 489.185 33.6143 489.038C32.8566 488.891 32.1597 488.522 31.612 487.978C31.0643 487.434 30.6904 486.74 30.5378 485.983C30.3852 485.227 30.4608 484.442 30.7549 483.728C31.049 483.015 31.5483 482.405 32.1897 481.975C32.8311 481.546 33.5855 481.317 34.3574 481.317C34.8678 481.313 35.3738 481.41 35.8464 481.603C36.319 481.796 36.7488 482.08 37.111 482.44C37.4732 482.799 37.7606 483.227 37.9568 483.698C38.153 484.17 38.2539 484.675 38.2539 485.185Z" fill="white"/>
<path d="M68.9509 305.39C71.0876 305.39 72.8198 303.658 72.8198 301.521C72.8198 299.385 71.0876 297.652 68.9509 297.652C66.8142 297.652 65.082 299.385 65.082 301.521C65.082 303.658 66.8142 305.39 68.9509 305.39Z" fill="white"/>
<path d="M150.084 187.833C152.22 187.833 153.953 186.101 153.953 183.965C153.953 181.828 152.22 180.096 150.084 180.096C147.947 180.096 146.215 181.828 146.215 183.965C146.215 186.101 147.947 187.833 150.084 187.833Z" fill="white"/>
<path d="M76.1017 254.899C76.1016 255.67 75.8724 256.425 75.443 257.066C75.0136 257.708 74.4034 258.207 73.6898 258.501C72.9762 258.795 72.1913 258.871 71.4347 258.718C70.6781 258.565 69.9839 258.192 69.44 257.644C68.8962 257.096 68.5273 256.399 68.3801 255.642C68.2329 254.884 68.3141 254.1 68.6132 253.388C68.9124 252.677 69.4161 252.07 70.0605 251.645C70.7049 251.22 71.4609 250.997 72.2327 251.002C72.7431 251.002 73.2485 251.103 73.7197 251.299C74.1909 251.495 74.6186 251.783 74.9782 252.145C75.3379 252.507 75.6223 252.937 75.8151 253.41C76.0079 253.882 76.1053 254.388 76.1017 254.899Z" fill="white"/>
<path d="M184.627 156.052C186.763 156.052 188.496 154.32 188.496 152.183C188.496 150.047 186.763 148.314 184.627 148.314C182.49 148.314 180.758 150.047 180.758 152.183C180.758 154.32 182.49 156.052 184.627 156.052Z" fill="white"/>
<path d="M122.168 213.445C122.16 214.474 121.747 215.458 121.017 216.183C120.287 216.908 119.3 217.314 118.271 217.314C117.245 217.314 116.261 216.907 115.536 216.181C114.81 215.456 114.402 214.471 114.402 213.445C114.402 212.417 114.809 211.43 115.534 210.7C116.259 209.97 117.243 209.556 118.271 209.549C119.305 209.549 120.296 209.959 121.027 210.69C121.757 211.421 122.168 212.412 122.168 213.445Z" fill="white"/>
<path d="M330.347 85.5826C330.362 86.1012 330.273 86.6175 330.086 87.1013C329.898 87.585 329.616 88.0265 329.256 88.3997C328.895 88.7729 328.464 89.0705 327.987 89.2748C327.51 89.4791 326.997 89.5862 326.478 89.5896C325.445 89.5896 324.454 89.1791 323.723 88.4484C322.993 87.7176 322.582 86.7265 322.582 85.6931C322.589 84.6645 323.003 83.6805 323.733 82.9557C324.463 82.2309 325.45 81.8242 326.478 81.8242C327.486 81.8238 328.453 82.2162 329.176 82.918C329.898 83.6199 330.319 84.5758 330.347 85.5826Z" fill="white"/>
<path d="M344.164 55.4627C344.164 55.9708 344.064 56.4739 343.869 56.9433C343.675 57.4127 343.39 57.8392 343.031 58.1984C342.671 58.5577 342.245 58.8427 341.775 59.0371C341.306 59.2315 340.803 59.3316 340.295 59.3316C339.784 59.3353 339.278 59.2379 338.806 59.0451C338.333 58.8523 337.904 58.5679 337.541 58.2083C337.179 57.8486 336.892 57.4209 336.695 56.9497C336.499 56.4785 336.398 55.9731 336.398 55.4627C336.398 54.9523 336.499 54.447 336.695 53.9758C336.892 53.5046 337.179 53.0768 337.541 52.7172C337.904 52.3576 338.333 52.0732 338.806 51.8804C339.278 51.6876 339.784 51.5902 340.295 51.5938C341.321 51.5938 342.305 52.0015 343.031 52.727C343.756 53.4526 344.164 54.4366 344.164 55.4627Z" fill="white"/>
<path d="M279.029 70.3843C281.166 70.3843 282.898 68.6521 282.898 66.5154C282.898 64.3786 281.166 62.6465 279.029 62.6465C276.892 62.6465 275.16 64.3786 275.16 66.5154C275.16 68.6521 276.892 70.3843 279.029 70.3843Z" fill="white"/>
<path d="M257.859 89.73C259.996 89.73 261.728 87.9978 261.728 85.8611C261.728 83.7244 259.996 81.9922 257.859 81.9922C255.722 81.9922 253.99 83.7244 253.99 85.8611C253.99 87.9978 255.722 89.73 257.859 89.73Z" fill="white"/>
<path d="M291.021 58.8608C293.158 58.8608 294.89 57.1287 294.89 54.9919C294.89 52.8552 293.158 51.123 291.021 51.123C288.884 51.123 287.152 52.8552 287.152 54.9919C287.152 57.1287 288.884 58.8608 291.021 58.8608Z" fill="white"/>
<path d="M462.994 55.9278C462.994 56.9539 462.586 57.9379 461.861 58.6635C461.135 59.389 460.151 59.7967 459.125 59.7967C458.096 59.7967 457.109 59.3899 456.38 58.6652C455.65 57.9404 455.236 56.9564 455.229 55.9278C455.229 54.8943 455.639 53.9033 456.37 53.1725C457.1 52.4418 458.092 52.0313 459.125 52.0312C460.154 52.0385 461.138 52.4523 461.862 53.1822C462.587 53.9122 462.994 54.8991 462.994 55.9278Z" fill="white"/>
<path d="M379.648 241.08C379.641 242.109 379.227 243.093 378.497 243.818C377.767 244.542 376.78 244.949 375.752 244.949C374.726 244.949 373.742 244.541 373.016 243.816C372.291 243.09 371.883 242.106 371.883 241.08C371.883 240.051 372.29 239.065 373.014 238.335C373.739 237.605 374.723 237.191 375.752 237.184C376.785 237.184 377.776 237.594 378.507 238.325C379.238 239.056 379.648 240.047 379.648 241.08Z" fill="white"/>
<path d="M328.33 274.414C330.467 274.414 332.199 272.681 332.199 270.545C332.199 268.408 330.467 266.676 328.33 266.676C326.193 266.676 324.461 268.408 324.461 270.545C324.461 272.681 326.193 274.414 328.33 274.414Z" fill="white"/>
<path d="M488.336 272.861C488.336 273.632 488.108 274.385 487.679 275.026C487.251 275.667 486.643 276.166 485.931 276.461C485.219 276.756 484.435 276.833 483.679 276.683C482.924 276.533 482.229 276.162 481.684 275.617C481.139 275.072 480.768 274.377 480.618 273.622C480.467 272.866 480.545 272.082 480.84 271.37C481.135 270.658 481.634 270.05 482.275 269.622C482.915 269.193 483.669 268.965 484.44 268.965C485.473 268.965 486.464 269.375 487.195 270.106C487.926 270.837 488.336 271.828 488.336 272.861Z" fill="white"/>
<path d="M559.08 39.5171C561.217 39.5171 562.949 37.7849 562.949 35.6482C562.949 33.5115 561.217 31.7793 559.08 31.7793C556.943 31.7793 555.211 33.5115 555.211 35.6482C555.211 37.7849 556.943 39.5171 559.08 39.5171Z" fill="white"/>
<path d="M690.817 65.2968C690.817 67.0705 690.112 68.7715 688.858 70.0257C687.604 71.2798 685.902 71.9844 684.129 71.9844C683.252 71.9844 682.384 71.8113 681.574 71.4748C680.764 71.1384 680.028 70.6454 679.41 70.024C678.791 69.4026 678.301 68.6652 677.968 67.8539C677.635 67.0427 677.465 66.1737 677.469 65.2968C677.469 63.5304 678.17 61.8364 679.419 60.5874C680.668 59.3385 682.362 58.6368 684.129 58.6368C685.006 58.6331 685.875 58.8027 686.686 59.1358C687.497 59.4689 688.235 59.9588 688.856 60.5776C689.477 61.1964 689.971 61.9319 690.307 62.7417C690.643 63.5515 690.817 64.4198 690.817 65.2968Z" fill="white"/>
<path d="M444.198 6.68764C444.198 8.46132 443.493 10.1623 442.239 11.4165C440.985 12.6707 439.284 13.3753 437.51 13.3753C436.632 13.3753 435.762 13.2023 434.951 12.8662C434.139 12.5301 433.402 12.0375 432.781 11.4165C432.16 10.7955 431.667 10.0583 431.331 9.24689C430.995 8.43551 430.822 7.56588 430.822 6.68764C430.83 4.91621 431.537 3.2194 432.789 1.9668C434.042 0.714195 435.738 0.00727497 437.51 0C438.388 0 439.258 0.172982 440.069 0.509067C440.88 0.845153 441.618 1.33776 442.239 1.95877C442.86 2.57977 443.352 3.31701 443.688 4.12839C444.025 4.93977 444.198 5.80941 444.198 6.68764Z" fill="white"/>
<path d="M547.703 63.5276C551.397 63.5276 554.391 60.5335 554.391 56.84C554.391 53.1465 551.397 50.1523 547.703 50.1523C544.01 50.1523 541.016 53.1465 541.016 56.84C541.016 60.5335 544.01 63.5276 547.703 63.5276Z" fill="white"/>
<path d="M694.27 65.296C694.27 67.9859 693.202 70.5655 691.3 72.4675C689.398 74.3695 686.818 75.4381 684.128 75.4381C682.797 75.4381 681.48 75.1755 680.251 74.6655C679.022 74.1555 677.906 73.408 676.966 72.4659C676.027 71.5237 675.282 70.4055 674.776 69.1751C674.269 67.9448 674.01 66.6266 674.014 65.296C674.014 62.6135 675.079 60.0409 676.976 58.1441C678.873 56.2473 681.446 55.1817 684.128 55.1817C685.459 55.178 686.777 55.437 688.007 55.9436C689.238 56.4503 690.356 57.1947 691.298 58.1343C692.24 59.0739 692.988 60.1901 693.498 61.4191C694.008 62.648 694.27 63.9655 694.27 65.296Z" fill="white"/>
<path d="M511.406 160.386C511.37 162.138 510.651 163.807 509.401 165.036C508.152 166.265 506.471 166.956 504.719 166.963C502.945 166.963 501.244 166.259 499.99 165.004C498.736 163.75 498.031 162.049 498.031 160.276C498.031 158.502 498.736 156.801 499.99 155.547C501.244 154.292 502.945 153.588 504.719 153.588C505.606 153.588 506.485 153.764 507.304 154.107C508.123 154.45 508.865 154.953 509.487 155.586C510.11 156.218 510.6 156.969 510.93 157.793C511.259 158.617 511.421 159.499 511.406 160.386Z" fill="white"/>
<path d="M705.503 351.632C714.941 342.843 715.467 328.067 706.678 318.629C697.889 309.191 683.113 308.665 673.675 317.454C664.237 326.242 663.711 341.018 672.5 350.457C681.289 359.895 696.064 360.421 705.503 351.632Z" fill="white"/>
<path d="M270.297 215.52C273.991 215.52 276.985 212.526 276.985 208.832C276.985 205.139 273.991 202.145 270.297 202.145C266.604 202.145 263.609 205.139 263.609 208.832C263.609 212.526 266.604 215.52 270.297 215.52Z" fill="white"/>
<path d="M466.727 410.567C466.727 411.889 466.335 413.182 465.6 414.282C464.865 415.382 463.821 416.239 462.599 416.745C461.377 417.251 460.032 417.384 458.735 417.126C457.437 416.868 456.246 416.231 455.31 415.295C454.375 414.36 453.738 413.169 453.48 411.871C453.222 410.574 453.355 409.229 453.861 408.007C454.367 406.785 455.224 405.741 456.324 405.006C457.424 404.271 458.717 403.879 460.039 403.879C461.813 403.879 463.514 404.583 464.768 405.838C466.022 407.092 466.727 408.793 466.727 410.567Z" fill="white"/>
<path d="M511.406 160.386C511.37 162.138 510.651 163.807 509.401 165.036C508.152 166.265 506.471 166.956 504.719 166.963C502.945 166.963 501.244 166.259 499.99 165.004C498.736 163.75 498.031 162.049 498.031 160.276C498.031 158.502 498.736 156.801 499.99 155.547C501.244 154.292 502.945 153.588 504.719 153.588C505.606 153.588 506.485 153.764 507.304 154.107C508.123 154.45 508.865 154.953 509.487 155.586C510.11 156.218 510.6 156.969 510.93 157.793C511.259 158.617 511.421 159.499 511.406 160.386Z" fill="white"/>
<path d="M226.303 338.305C226.303 339.628 225.911 340.921 225.176 342.02C224.441 343.12 223.397 343.977 222.175 344.483C220.953 344.99 219.608 345.122 218.311 344.864C217.014 344.606 215.822 343.969 214.887 343.034C213.951 342.098 213.314 340.907 213.056 339.61C212.798 338.312 212.931 336.968 213.437 335.746C213.943 334.524 214.8 333.479 215.9 332.744C217 332.009 218.293 331.617 219.615 331.617C221.389 331.617 223.09 332.322 224.344 333.576C225.598 334.83 226.303 336.531 226.303 338.305Z" fill="white"/>
<path d="M295.912 452.877C299.606 452.877 302.6 449.883 302.6 446.19C302.6 442.496 299.606 439.502 295.912 439.502C292.219 439.502 289.225 442.496 289.225 446.19C289.225 449.883 292.219 452.877 295.912 452.877Z" fill="white"/>
<path d="M477.996 410.566C477.996 414.119 476.942 417.592 474.968 420.546C472.995 423.5 470.189 425.802 466.907 427.162C463.625 428.521 460.013 428.877 456.529 428.184C453.044 427.491 449.844 425.78 447.332 423.268C444.819 420.756 443.109 417.555 442.415 414.071C441.722 410.586 442.078 406.974 443.438 403.692C444.797 400.41 447.1 397.605 450.054 395.631C453.007 393.657 456.48 392.604 460.033 392.604C464.797 392.604 469.366 394.496 472.735 397.865C476.103 401.233 477.996 405.802 477.996 410.566Z" fill="white"/>
<path d="M226.303 338.305C226.303 339.628 225.911 340.921 225.176 342.02C224.441 343.12 223.397 343.977 222.175 344.483C220.953 344.99 219.608 345.122 218.311 344.864C217.014 344.606 215.822 343.969 214.887 343.034C213.951 342.098 213.314 340.907 213.056 339.61C212.798 338.312 212.931 336.968 213.437 335.746C213.943 334.524 214.8 333.479 215.9 332.744C217 332.009 218.293 331.617 219.615 331.617C221.389 331.617 223.09 332.322 224.344 333.576C225.598 334.83 226.303 336.531 226.303 338.305Z" fill="white"/>
<path d="M208.34 579.61C208.34 580.932 207.948 582.225 207.213 583.325C206.478 584.425 205.434 585.282 204.212 585.788C202.99 586.294 201.645 586.427 200.348 586.169C199.05 585.911 197.859 585.274 196.924 584.338C195.988 583.403 195.351 582.211 195.093 580.914C194.835 579.617 194.968 578.272 195.474 577.05C195.98 575.828 196.837 574.784 197.937 574.049C199.037 573.314 200.33 572.922 201.652 572.922C203.426 572.922 205.127 573.626 206.381 574.881C207.636 576.135 208.34 577.836 208.34 579.61Z" fill="white"/>
<path d="M295.923 455.335C300.974 455.335 305.07 451.24 305.07 446.188C305.07 441.136 300.974 437.041 295.923 437.041C290.871 437.041 286.775 441.136 286.775 446.188C286.775 451.24 290.871 455.335 295.923 455.335Z" fill="white"/>
<path d="M17.1292 551.094C17.1292 552.417 16.737 553.71 16.0021 554.809C15.2673 555.909 14.2228 556.766 13.0008 557.272C11.7788 557.779 10.4342 557.911 9.13689 557.653C7.83962 557.395 6.64792 556.758 5.71264 555.823C4.77736 554.887 4.14044 553.696 3.8824 552.399C3.62436 551.101 3.75683 549.757 4.263 548.535C4.76918 547.313 5.62632 546.268 6.72609 545.533C7.82587 544.798 9.11887 544.406 10.4416 544.406C12.2152 544.406 13.9162 545.111 15.1704 546.365C16.4246 547.619 17.1292 549.32 17.1292 551.094Z" fill="white"/>
<path d="M221.509 584.342C224.092 573.442 217.349 562.511 206.448 559.928C195.548 557.345 184.617 564.088 182.034 574.989C179.451 585.89 186.194 596.82 197.095 599.403C207.996 601.986 218.926 595.243 221.509 584.342Z" fill="white"/>
<path d="M64.3362 419.77C64.3362 421.09 63.9453 422.381 63.2129 423.48C62.4805 424.578 61.4392 425.435 60.2204 425.943C59.0017 426.451 57.6598 426.586 56.3641 426.333C55.0683 426.079 53.8767 425.448 52.9392 424.518C52.0018 423.588 51.3605 422.402 51.0962 421.108C50.832 419.815 50.9566 418.472 51.4543 417.249C51.952 416.026 52.8006 414.978 53.893 414.236C54.9855 413.495 56.273 413.093 57.5933 413.082C58.4762 413.075 59.3518 413.243 60.1696 413.575C60.9874 413.908 61.7311 414.4 62.358 415.021C62.9849 415.643 63.4824 416.383 63.822 417.198C64.1615 418.013 64.3363 418.887 64.3362 419.77Z" fill="white"/>
<path d="M13.3753 403.631C13.3753 404.954 12.9831 406.247 12.2482 407.346C11.5134 408.446 10.4689 409.303 9.2469 409.81C8.0249 410.316 6.6802 410.448 5.38293 410.19C4.08565 409.932 2.89404 409.295 1.95876 408.36C1.02347 407.425 0.38656 406.233 0.128516 404.936C-0.129528 403.638 0.00286364 402.294 0.509036 401.072C1.01521 399.85 1.87243 398.805 2.97221 398.07C4.07199 397.336 5.3649 396.943 6.68759 396.943C8.46126 396.943 10.1623 397.648 11.4165 398.902C12.6707 400.156 13.3753 401.857 13.3753 403.631Z" fill="white"/>
<path d="M17.1292 551.094C17.1292 552.417 16.737 553.71 16.0021 554.809C15.2673 555.909 14.2228 556.766 13.0008 557.272C11.7788 557.779 10.4342 557.911 9.13689 557.653C7.83962 557.395 6.64792 556.758 5.71264 555.823C4.77736 554.887 4.14044 553.696 3.8824 552.399C3.62436 551.101 3.75683 549.757 4.263 548.535C4.76918 547.313 5.62632 546.268 6.72609 545.533C7.82587 544.798 9.11887 544.406 10.4416 544.406C12.2152 544.406 13.9162 545.111 15.1704 546.365C16.4246 547.619 17.1292 549.32 17.1292 551.094Z" fill="white"/>
<path d="M64.3362 419.77C64.3362 421.09 63.9453 422.381 63.2129 423.48C62.4805 424.578 61.4392 425.435 60.2204 425.943C59.0017 426.451 57.6598 426.586 56.3641 426.333C55.0683 426.079 53.8767 425.448 52.9392 424.518C52.0018 423.588 51.3605 422.402 51.0962 421.108C50.832 419.815 50.9566 418.472 51.4543 417.249C51.952 416.026 52.8006 414.978 53.893 414.236C54.9855 413.495 56.273 413.093 57.5933 413.082C58.4762 413.075 59.3518 413.243 60.1696 413.575C60.9874 413.908 61.7311 414.4 62.358 415.021C62.9849 415.643 63.4824 416.383 63.822 417.198C64.1615 418.013 64.3363 418.887 64.3362 419.77Z" fill="white"/>
<path d="M226.303 338.305C226.303 339.628 225.911 340.921 225.176 342.02C224.441 343.12 223.397 343.977 222.175 344.483C220.953 344.99 219.608 345.122 218.311 344.864C217.014 344.606 215.822 343.969 214.887 343.034C213.951 342.098 213.314 340.907 213.056 339.61C212.798 338.312 212.931 336.968 213.437 335.746C213.943 334.524 214.8 333.479 215.9 332.744C217 332.009 218.293 331.617 219.615 331.617C221.389 331.617 223.09 332.322 224.344 333.576C225.598 334.83 226.303 336.531 226.303 338.305Z" fill="white"/>
<path d="M38.7191 291.957C38.7191 293.28 38.3268 294.573 37.5919 295.673C36.8571 296.772 35.8126 297.63 34.5906 298.136C33.3686 298.642 32.024 298.774 30.7267 298.516C29.4295 298.258 28.2378 297.621 27.3025 296.686C26.3672 295.751 25.7303 294.559 25.4722 293.262C25.2142 291.965 25.3467 290.62 25.8528 289.398C26.359 288.176 27.2162 287.131 28.3159 286.397C29.4157 285.662 30.7087 285.27 32.0314 285.27C33.8051 285.27 35.5061 285.974 36.7603 287.228C38.0145 288.482 38.7191 290.184 38.7191 291.957Z" fill="white"/>
<path d="M64.3362 419.77C64.3362 421.09 63.9453 422.381 63.2129 423.48C62.4805 424.578 61.4392 425.435 60.2204 425.943C59.0017 426.451 57.6598 426.586 56.3641 426.333C55.0683 426.079 53.8767 425.448 52.9392 424.518C52.0018 423.588 51.3605 422.402 51.0962 421.108C50.832 419.815 50.9566 418.472 51.4543 417.249C51.952 416.026 52.8006 414.978 53.893 414.236C54.9855 413.495 56.273 413.093 57.5933 413.082C58.4762 413.075 59.3518 413.243 60.1696 413.575C60.9874 413.908 61.7311 414.4 62.358 415.021C62.9849 415.643 63.4824 416.383 63.822 417.198C64.1615 418.013 64.3363 418.887 64.3362 419.77Z" fill="white"/>
<path d="M38.7191 291.957C38.7191 293.28 38.3268 294.573 37.5919 295.673C36.8571 296.772 35.8126 297.63 34.5906 298.136C33.3686 298.642 32.024 298.774 30.7267 298.516C29.4295 298.258 28.2378 297.621 27.3025 296.686C26.3672 295.751 25.7303 294.559 25.4722 293.262C25.2142 291.965 25.3467 290.62 25.8528 289.398C26.359 288.176 27.2162 287.131 28.3159 286.397C29.4157 285.662 30.7087 285.27 32.0314 285.27C33.8051 285.27 35.5061 285.974 36.7603 287.228C38.0145 288.482 38.7191 290.184 38.7191 291.957Z" fill="white"/>
<path d="M111.699 237.325C115.393 237.325 118.387 234.33 118.387 230.637C118.387 226.943 115.393 223.949 111.699 223.949C108.006 223.949 105.012 226.943 105.012 230.637C105.012 234.33 108.006 237.325 111.699 237.325Z" fill="white"/>
<path d="M75.8801 220.329C78.8105 220.329 81.186 217.953 81.186 215.023C81.186 212.092 78.8105 209.717 75.8801 209.717C72.9498 209.717 70.5742 212.092 70.5742 215.023C70.5742 217.953 72.9498 220.329 75.8801 220.329Z" fill="white"/>
<path d="M234.786 338.304C234.786 341.305 233.897 344.238 232.23 346.733C230.563 349.228 228.193 351.173 225.421 352.321C222.649 353.469 219.598 353.77 216.655 353.184C213.712 352.599 211.009 351.154 208.887 349.032C206.765 346.911 205.32 344.207 204.735 341.264C204.149 338.321 204.45 335.271 205.598 332.498C206.747 329.726 208.691 327.357 211.186 325.69C213.681 324.023 216.614 323.133 219.615 323.133C223.639 323.133 227.498 324.731 230.343 327.576C233.188 330.422 234.786 334.281 234.786 338.304Z" fill="white"/>
<path d="M270.297 215.52C273.991 215.52 276.985 212.526 276.985 208.832C276.985 205.139 273.991 202.145 270.297 202.145C266.604 202.145 263.609 205.139 263.609 208.832C263.609 212.526 266.604 215.52 270.297 215.52Z" fill="white"/>
<path d="M511.406 160.386C511.37 162.138 510.651 163.807 509.401 165.036C508.152 166.265 506.471 166.956 504.719 166.963C502.945 166.963 501.244 166.259 499.99 165.004C498.736 163.75 498.031 162.049 498.031 160.276C498.031 158.502 498.736 156.801 499.99 155.547C501.244 154.292 502.945 153.588 504.719 153.588C505.606 153.588 506.485 153.764 507.304 154.107C508.123 154.45 508.865 154.953 509.487 155.586C510.11 156.218 510.6 156.969 510.93 157.793C511.259 158.617 511.421 159.499 511.406 160.386Z" fill="white"/>
<path d="M547.702 65.9896C552.754 65.9896 556.849 61.8943 556.849 56.8425C556.849 51.7906 552.754 47.6953 547.702 47.6953C542.65 47.6953 538.555 51.7906 538.555 56.8425C538.555 61.8943 542.65 65.9896 547.702 65.9896Z" fill="white"/>
<path d="M254.213 61.8968C257.907 61.8968 260.901 58.9026 260.901 55.2091C260.901 51.5156 257.907 48.5215 254.213 48.5215C250.52 48.5215 247.525 51.5156 247.525 55.2091C247.525 58.9026 250.52 61.8968 254.213 61.8968Z" fill="white"/>
<path d="M270.297 215.52C273.991 215.52 276.985 212.526 276.985 208.832C276.985 205.139 273.991 202.145 270.297 202.145C266.604 202.145 263.609 205.139 263.609 208.832C263.609 212.526 266.604 215.52 270.297 215.52Z" fill="white"/>
<path d="M149.259 132.478C151.793 132.478 153.847 130.424 153.847 127.89C153.847 125.357 151.793 123.303 149.259 123.303C146.726 123.303 144.672 125.357 144.672 127.89C144.672 130.424 146.726 132.478 149.259 132.478Z" fill="white"/>
<path d="M254.213 61.8968C257.907 61.8968 260.901 58.9026 260.901 55.2091C260.901 51.5156 257.907 48.5215 254.213 48.5215C250.52 48.5215 247.525 51.5156 247.525 55.2091C247.525 58.9026 250.52 61.8968 254.213 61.8968Z" fill="white"/>
<path d="M270.297 215.52C273.991 215.52 276.985 212.526 276.985 208.832C276.985 205.139 273.991 202.145 270.297 202.145C266.604 202.145 263.609 205.139 263.609 208.832C263.609 212.526 266.604 215.52 270.297 215.52Z" fill="white"/>
<path d="M364.333 17.735C364.333 19.5087 363.629 21.2097 362.374 22.4639C361.12 23.7181 359.419 24.4227 357.646 24.4227C356.761 24.43 355.884 24.2626 355.065 23.9301C354.246 23.5976 353.5 23.1066 352.871 22.4852C352.242 21.8638 351.742 21.1244 351.399 20.3092C351.057 19.494 350.879 18.6192 350.875 17.735C350.875 15.9614 351.58 14.2603 352.834 13.0062C354.088 11.752 355.789 11.0474 357.563 11.0474C358.448 11.0364 359.326 11.2013 360.147 11.5325C360.968 11.8636 361.715 12.3545 362.345 12.9766C362.975 13.5987 363.475 14.3397 363.816 15.1565C364.158 15.9733 364.333 16.8498 364.333 17.735Z" fill="white"/>
<path d="M516.887 160.388C516.887 163.613 515.606 166.706 513.326 168.986C511.045 171.266 507.952 172.548 504.728 172.548C501.503 172.548 498.41 171.266 496.13 168.986C493.849 166.706 492.568 163.613 492.568 160.388C492.568 157.161 493.848 154.065 496.128 151.78C498.408 149.496 501.5 148.208 504.728 148.201C507.955 148.208 511.048 149.496 513.327 151.78C515.607 154.065 516.887 157.161 516.887 160.388Z" fill="white"/>
<path d="M444.198 6.68764C444.198 8.46132 443.493 10.1623 442.239 11.4165C440.985 12.6707 439.284 13.3753 437.51 13.3753C436.632 13.3753 435.762 13.2023 434.951 12.8662C434.139 12.5301 433.402 12.0375 432.781 11.4165C432.16 10.7955 431.667 10.0583 431.331 9.24689C430.995 8.43551 430.822 7.56588 430.822 6.68764C430.83 4.91621 431.537 3.2194 432.789 1.9668C434.042 0.714195 435.738 0.00727497 437.51 0C438.388 0 439.258 0.172982 440.069 0.509067C440.88 0.845153 441.618 1.33776 442.239 1.95877C442.86 2.57977 443.352 3.31701 443.688 4.12839C444.025 4.93977 444.198 5.80941 444.198 6.68764Z" fill="white"/>
<path d="M254.222 64.8017C259.518 64.8017 263.811 60.5084 263.811 55.2124C263.811 49.9163 259.518 45.623 254.222 45.623C248.926 45.623 244.633 49.9163 244.633 55.2124C244.633 60.5084 248.926 64.8017 254.222 64.8017Z" fill="white"/>
</g>
</svg>
